<svg width="40" height="50" viewBox="0 0 40 50" fill="none" xmlns="http://www.w3.org/2000/svg">
<g id="&#240;&#159;&#166;&#134; illustration &#34;lab laboratory microscope&#34;">
<path id="Vector" d="M36.4435 46.0753L30.0441 45.6874L29.7882 45.1134C36.3814 41.3126 40 35.2118 40 27.8467C40 19.7021 34.26 13.1592 29.0784 9.83928L29.6951 8.73781C29.7931 8.55725 29.8155 8.34517 29.7573 8.14812C29.6991 7.95107 29.5652 7.78515 29.3848 7.68677L27.2284 6.52324L28.9931 3.30416C29.0422 3.21458 29.0732 3.11617 29.0842 3.01459C29.0952 2.913 29.086 2.81025 29.0572 2.71222C29.0283 2.6142 28.9804 2.52283 28.9162 2.44338C28.8519 2.36393 28.7726 2.29795 28.6828 2.24924L24.8044 0.116112C24.7158 0.0612651 24.617 0.0248373 24.514 0.0090042C24.411 -0.00682893 24.3059 -0.00174274 24.2049 0.0239591C24.1039 0.0496609 24.0091 0.0954512 23.9262 0.158596C23.8433 0.221741 23.7739 0.300945 23.7223 0.391479L21.9576 3.61056L20.1581 2.63708C20.0681 2.58808 19.9694 2.55737 19.8676 2.54672C19.7657 2.53607 19.6628 2.54569 19.5647 2.57502C19.4657 2.6056 19.3739 2.65566 19.2947 2.72227C19.2154 2.78888 19.1503 2.87069 19.1031 2.96286L11.517 16.9329L3.41885 18.8178C3.3156 18.8414 3.21828 18.886 3.1329 18.9487C3.04752 19.0114 2.97589 19.0909 2.92242 19.1824C2.87044 19.2725 2.83713 19.3722 2.82448 19.4755C2.81182 19.5787 2.82006 19.6835 2.84873 19.7835L4.09757 24.0498C4.15208 24.2375 4.27544 24.3977 4.44299 24.4984C4.61054 24.599 4.80991 24.6328 5.00124 24.5927L9.03479 23.7317L10.7607 24.6742L8.43363 28.9598C8.33531 29.1399 8.31234 29.3516 8.36976 29.5486C8.42719 29.7456 8.56033 29.9118 8.74003 30.0109L12.6301 32.1556C12.749 32.2199 12.8827 32.252 13.0179 32.2487C13.0915 32.2496 13.1647 32.2391 13.2351 32.2177C13.334 32.1871 13.4258 32.1371 13.5051 32.0704C13.5844 32.0038 13.6495 31.922 13.6966 31.8299L16.0431 27.5636L18.0211 28.6496C18.14 28.7139 18.2737 28.746 18.4089 28.7426C18.4825 28.744 18.5558 28.7335 18.6261 28.7116C18.8263 28.6488 18.9936 28.5094 19.0915 28.3238L25.2271 16.9484C27.368 19.0583 29.5593 21.9166 29.5593 25.8338C29.5593 29.9411 28.1166 32.9701 24.9052 35.5842C24.2864 35.1134 23.5666 34.7931 22.8026 34.6485C22.0387 34.504 21.2516 34.5392 20.5036 34.7515C19.7556 34.9637 19.0672 35.347 18.493 35.8712C17.9187 36.3954 17.4743 37.046 17.195 37.7716C17.1082 37.9988 17.0382 38.2322 16.9855 38.4697C15.9248 38.6861 14.8452 38.7965 13.7626 38.7994H13.6307L15.089 36.0845C15.1418 35.9857 15.1727 35.8767 15.1794 35.7649C15.186 35.6531 15.1684 35.5411 15.1278 35.4368C15.0868 35.3323 15.0236 35.238 14.9425 35.1603C14.8615 35.0826 14.7646 35.0235 14.6585 34.9869L3.50806 31.1628C3.41154 31.1297 3.30945 31.1159 3.20761 31.1222C3.10577 31.1286 3.00618 31.1549 2.91452 31.1998C2.82287 31.2446 2.74094 31.3071 2.67342 31.3836C2.6059 31.4601 2.55411 31.5491 2.521 31.6456C2.4879 31.7421 2.47412 31.8442 2.48047 31.9461C2.48682 32.0479 2.51317 32.1475 2.55801 32.2392C2.60284 32.3308 2.6653 32.4128 2.7418 32.4803C2.8183 32.5478 2.90735 32.5996 3.00386 32.6327L13.2933 36.1504L11.9863 38.586C11.5751 38.492 11.1709 38.3702 10.7762 38.2215C10.7621 38.1216 10.74 38.0231 10.7103 37.9267C10.1479 36.1155 7.37483 35.4174 4.40009 36.3405C1.42535 37.2635 -0.463434 39.4083 0.0989349 41.2195C0.486776 42.4916 1.97221 43.213 3.84548 43.213C4.13981 43.2103 4.43375 43.1909 4.72588 43.1548C4.89898 43.5293 5.10948 43.8853 5.35418 44.2175L2.49579 44.0468C2.39028 44.0405 2.28459 44.0559 2.18522 44.0919C2.08585 44.1279 1.99488 44.1838 1.91791 44.2563C1.84063 44.3289 1.77907 44.4167 1.73705 44.5141C1.69502 44.6115 1.67341 44.7164 1.67357 44.8225V48.8716C1.67357 49.0773 1.75529 49.2746 1.90076 49.4201C2.04623 49.5655 2.24353 49.6473 2.44925 49.6473H36.397C36.6027 49.6473 36.8 49.5655 36.9454 49.4201C37.0909 49.2746 37.1726 49.0773 37.1726 48.8716V46.8509C37.173 46.653 37.0977 46.4625 36.9621 46.3183C36.8266 46.1741 36.6411 46.0871 36.4435 46.0753ZM24.7074 1.83037L27.2478 3.22272L25.8554 5.7592L24.498 5.01842L23.3345 4.37073L24.7074 1.83037ZM4.56686 20.1442L10.528 18.7557L8.64307 22.2463L5.38133 22.9444L4.56686 20.1442ZM12.6844 30.422L10.1479 29.0296L12.1181 25.4305L14.1814 26.5591L14.6546 26.819L12.6844 30.422ZM18.0598 26.912L16.0857 25.8338L13.3166 24.3213L10.2138 22.6148L12.7464 17.9762C12.7722 17.9226 12.7929 17.8668 12.8085 17.8094L20.096 4.3746L21.8878 5.35584L25.7895 7.48897L27.9459 8.67188L27.4029 9.66863C27.3921 9.67988 27.3805 9.69026 27.368 9.69966C27.368 9.73844 27.3292 9.77723 27.3137 9.81601L18.0598 26.912ZM31.1107 25.8338C31.1107 21.1487 28.4579 17.8831 25.9951 15.5328L28.3221 11.2122C33.1546 14.3538 38.4486 20.3692 38.4486 27.8545C38.4486 34.6844 35.2373 40.1335 29.1599 43.6862L26.445 37.5505C26.3146 37.2535 26.1548 36.9702 25.9679 36.705C29.474 33.8195 31.1107 30.3483 31.1107 25.8338ZM18.6416 38.3301C18.8895 37.692 19.3207 37.1415 19.8809 36.7481C20.4411 36.3547 21.1052 36.1359 21.7896 36.1193C22.4739 36.1027 23.1479 36.2891 23.7265 36.6549C24.3051 37.0207 24.7625 37.5496 25.041 38.1749L28.2988 45.5905L20.4489 45.125L18.6998 40.9829C18.5158 40.5664 18.4159 40.1176 18.4059 39.6623C18.3959 39.207 18.476 38.7543 18.6416 38.3301ZM1.57661 40.7618C1.32063 39.9357 2.66644 38.5046 4.85774 37.8259C5.54603 37.6046 6.26402 37.4895 6.98699 37.4846C8.18154 37.4846 9.05806 37.8491 9.22483 38.3844C9.34118 38.7722 9.12011 39.2725 8.6198 39.7922C7.86422 40.5153 6.94667 41.0472 5.9437 41.3436C3.76015 42.0029 1.83646 41.5879 1.58049 40.7618H1.57661ZM7.43688 44.2834C6.9943 43.8525 6.61087 43.3647 6.29663 42.8329L6.40523 42.8058C7.65531 42.4388 8.79736 41.7733 9.7329 40.8666C10.0472 40.5463 10.3089 40.1785 10.5086 39.7767C11.5551 40.1412 12.6544 40.3311 13.7626 40.3391C14.8029 40.3357 15.841 40.2423 16.8653 40.0598C16.9136 40.5864 17.0445 41.1021 17.2531 41.5879L18.6959 45.0087L7.51057 44.3532C7.48342 44.33 7.46403 44.3028 7.44076 44.2834H7.43688ZM35.6213 48.0959H3.22493V45.6525L29.4818 47.2039H29.5244H29.5477L35.6213 47.5646V48.0959Z" fill="#153E79"/>
</g>
</svg>
