<svg width="27" height="27" viewBox="0 0 27 27" fill="none" xmlns="http://www.w3.org/2000/svg">
<path d="M13.0061 5.72765L13.2926 2.76664C13.4079 1.57649 14.5182 0.769191 15.641 1.05928C17.3304 1.49578 18.5156 3.06454 18.5156 4.86427V8.6578C18.5156 9.50155 18.5156 9.92343 18.6987 10.2336C18.8024 10.4091 18.9451 10.5565 19.1149 10.6637C19.415 10.853 19.8232 10.853 20.6396 10.853H21.135C23.2635 10.853 24.3277 10.853 24.983 11.3411C25.4732 11.7061 25.819 12.2421 25.9565 12.8501C26.1405 13.663 25.7311 14.6783 24.9125 16.7089L24.5044 17.7211C24.2686 18.3059 24.1721 18.9404 24.223 19.5716C24.5126 23.1632 21.6634 26.1905 18.1814 25.9906L5.15084 25.2425C3.72784 25.1607 3.01634 25.1199 2.3732 24.551C1.73007 23.982 1.60907 23.3961 1.36706 22.2246C1.16077 21.2259 1 20.0015 1 18.611C1 17.0688 1.19776 15.7309 1.43604 14.6788C1.78946 13.1181 3.28025 12.279 4.81917 12.4778C8.89859 13.0048 12.5971 9.95536 13.0061 5.72765Z" stroke="#0094FF" stroke-width="1.5" stroke-linecap="round" stroke-linejoin="round"/>
<path d="M7.25016 12.875L7.07892 13.4458C5.9702 17.1415 6.03 21.0895 7.25016 24.75" stroke="#0094FF" stroke-width="1.5" stroke-linecap="round" stroke-linejoin="round"/>
</svg>
