<svg width="95" height="100" viewBox="0 0 95 100" fill="none" xmlns="http://www.w3.org/2000/svg">
<g id="&#240;&#159;&#166;&#134; illustration &#34;gdpr privacy people safe shield&#34;">
<path id="Vector" d="M87.5503 39.4546C87.5503 39.4546 83.1547 36.4906 75.7833 34.7774C79.078 32.5857 81.5797 29.3917 82.9185 25.668C84.2573 21.9442 84.3621 17.8884 83.2172 14.1005C82.0724 10.3126 79.7388 6.9938 76.5616 4.63494C73.3844 2.27607 69.5324 1.00244 65.5753 1.00244C61.6182 1.00244 57.7661 2.27607 54.589 4.63494C51.4118 6.9938 49.0782 10.3126 47.9333 14.1005C46.7885 17.8884 46.8932 21.9442 48.232 25.668C49.5708 29.3917 52.0726 32.5857 55.3673 34.7774C51.8105 35.6281 49.1429 36.621 47.1452 37.614C46.1522 28.2567 38.354 20.8852 28.7151 20.8852C24.7608 20.882 20.9106 22.1522 17.7345 24.5076C14.5583 26.863 12.2249 30.1785 11.0798 33.9633C9.93471 37.7482 10.0387 41.8011 11.3764 45.5222C12.714 49.2433 15.2143 52.4349 18.5071 54.6243C11.1356 56.3257 6.74004 59.3015 6.74004 59.3015C4.04577 60.8606 1.77832 64.5478 1.77832 67.6659V86.096C1.78301 87.5984 2.3819 89.0378 3.44424 90.1002C4.50658 91.1625 5.94607 91.7614 7.44844 91.7661H49.9817C51.4841 91.7614 52.9236 91.1625 53.9859 90.1002C55.0483 89.0378 55.6471 87.5984 55.6518 86.096V71.9192H86.8449C88.3473 71.9145 89.7868 71.3156 90.8491 70.2533C91.9114 69.191 92.5103 67.7515 92.515 66.2491V47.819C92.515 44.6979 90.4017 40.8714 87.5503 39.4546Z" fill="#E7E7E7"/>
<path id="Vector_2" d="M91.7709 47.8191V66.2492C91.7662 67.7516 91.1673 69.191 90.105 70.2534C89.0426 71.3157 87.6031 71.9146 86.1008 71.9193H54.9107V86.099C54.9052 87.6022 54.3052 89.0421 53.2418 90.1045C52.1783 91.1668 50.7378 91.7653 49.2346 91.7692H6.7043C5.20169 91.7652 3.76175 91.1666 2.69924 90.1041C1.63673 89.0416 1.03809 87.6016 1.03418 86.099V78.3482C3.40537 79.27 5.97515 79.7531 8.50048 80.2126C18.1097 81.9406 29.2781 83.0165 36.442 76.386C39.8121 73.2709 41.8661 68.736 45.8142 66.4004C49.7622 64.0647 54.6054 64.4471 59.1284 63.878C70.1693 62.4938 79.8289 55.0868 85.9348 45.7976C86.9685 44.2242 87.9173 42.5966 88.7772 40.9219C90.5734 42.7388 91.7709 45.4746 91.7709 47.8191Z" fill="#CED0D0"/>
<path id="Vector_3" d="M49.9818 94.2913H7.44851C5.47377 94.2889 3.58057 93.5034 2.18422 92.107C0.787861 90.7107 0.00235322 88.8175 0 86.8428L0 68.4097C0 64.7729 2.54311 60.4632 5.79757 58.5366C6.27181 58.2224 9.44624 56.204 14.6629 54.5708C11.7732 51.772 9.78487 48.1741 8.95268 44.2382C8.12049 40.3024 8.48231 36.2076 9.9918 32.4787C11.5013 28.7497 14.0897 25.5563 17.4254 23.3075C20.7611 21.0588 24.6922 19.8571 28.7152 19.8565C33.3381 19.8641 37.8203 21.4479 41.4216 24.3466C45.0229 27.2452 47.5281 31.2853 48.5235 35.7998C49.4582 35.4244 50.461 35.0697 51.532 34.7358C48.638 31.9373 46.6458 28.3382 45.8108 24.4C44.9758 20.4618 45.336 16.364 46.8454 12.6319C48.3547 8.89983 50.9443 5.70358 54.2822 3.45298C57.6201 1.20238 61.5541 0 65.5798 0C69.6056 0 73.5396 1.20238 76.8774 3.45298C80.2153 5.70358 82.8049 8.89983 84.3142 12.6319C85.8236 16.364 86.1838 20.4618 85.3488 24.4C84.5138 28.3382 82.5216 31.9373 79.6276 34.7358C84.699 36.3245 87.8409 38.2926 88.4485 38.6719C91.7326 40.3762 94.2935 44.7007 94.2935 48.5746V66.984C94.2935 68.9603 93.509 70.8558 92.1124 72.254C90.7158 73.6523 88.8213 74.439 86.845 74.4414H57.4303V86.8428C57.428 88.8175 56.6424 90.7107 55.2461 92.107C53.8497 93.5034 51.9565 94.2889 49.9818 94.2913ZM28.7152 23.4133C24.3021 23.4188 20.0712 25.1737 16.9498 28.2934C13.8285 31.4131 12.0713 35.6431 12.0634 40.0561C12.0527 42.7946 12.7246 45.4926 14.0184 47.9062C15.3121 50.3199 17.187 52.373 19.4734 53.8802L22.9502 56.1654L18.8984 57.1021C11.9893 58.6848 7.77752 61.4917 7.73602 61.5184L7.63228 61.5836C5.42411 62.8641 3.55679 65.9881 3.55679 68.4097V86.8428C3.55836 87.8744 3.96888 88.8634 4.69838 89.5929C5.42788 90.3224 6.41684 90.7329 7.44851 90.7345H49.9818C51.0135 90.7329 52.0024 90.3224 52.7319 89.5929C53.4614 88.8634 53.872 87.8744 53.8735 86.8428V70.8846H86.845C87.8782 70.883 88.8685 70.4713 89.5982 69.7399C90.328 69.0085 90.7375 68.0172 90.7367 66.984V48.5628C90.7367 46.0138 88.8783 42.8482 86.759 41.7901L86.6553 41.7367L86.5604 41.6715C86.4952 41.63 82.2893 38.8439 75.3891 37.2522L71.3374 36.3156L74.8141 34.0303C77.1008 32.5234 78.9758 30.4703 80.2696 28.0566C81.5633 25.6429 82.2351 22.9448 82.2241 20.2063C82.2241 18.0195 81.7934 15.8542 80.9566 13.8339C80.1197 11.8137 78.8932 9.978 77.3469 8.43174C75.8007 6.88549 73.965 5.65893 71.9447 4.82211C69.9245 3.98528 67.7591 3.55457 65.5724 3.55457C63.3857 3.55457 61.2203 3.98528 59.2001 4.82211C57.1798 5.65893 55.3441 6.88549 53.7979 8.43174C52.2516 9.978 51.0251 11.8137 50.1882 13.8339C49.3514 15.8542 48.9207 18.0195 48.9207 20.2063C48.9097 22.9448 49.5815 25.6429 50.8752 28.0566C52.169 30.4703 54.044 32.5234 56.3307 34.0303L59.7659 36.2859L55.7705 37.2463C53.0639 37.8504 50.4333 38.7551 47.9277 39.9435L45.6455 41.0906L45.3758 38.5415C44.9628 34.4053 43.0309 30.5692 39.9535 27.7748C36.8761 24.9805 32.8719 23.4265 28.7152 23.4133Z" fill="#153E79"/>
<path id="Vector_4" d="M25.7423 28.7097C27.3593 28.1479 29.0737 27.921 30.7811 28.0428C31.9222 28.1258 31.9193 26.3474 30.7811 26.2644C28.9141 26.1348 27.0401 26.3828 25.271 26.9935C24.1921 27.3581 24.6545 29.0683 25.7453 28.7097H25.7423Z" fill="white"/>
<path id="Vector_5" d="M22.7487 50.0152C21.3166 48.9717 20.1224 47.636 19.2451 46.0965C18.3678 44.5569 17.8273 42.8487 17.6595 41.0847C17.2801 37.2167 18.8066 33.6747 21.6579 31.105C22.5086 30.3343 21.2459 29.0805 20.4012 29.8482C13.8033 35.8266 14.6659 46.4229 21.8506 51.5506C22.7842 52.2175 23.6734 50.6614 22.7398 50.0152H22.7487Z" fill="white"/>
<path id="Vector_6" d="M49.8926 99.6889C49.8926 99.6889 75.6289 86.8222 75.6289 67.5177V41.7903L49.8926 35.3555L24.1592 41.7903V67.5266C24.1592 86.8222 49.8926 99.6889 49.8926 99.6889Z" fill="#0094FF"/>
<path id="Vector_7" d="M75.6289 55.2939V66.0503C75.6289 85.3548 49.8926 98.2215 49.8926 98.2215C49.8926 98.2215 24.1592 85.3607 24.1592 66.0532V55.2939C24.1592 74.5984 49.8926 87.4651 49.8926 87.4651C49.8926 87.4651 75.6289 74.5984 75.6289 55.2939Z" fill="#153E79"/>
<path id="Vector_8" d="M49.893 99.9998L49.0987 99.5878C44.3518 97.0799 39.9109 94.0315 35.8644 90.5032C27.0495 82.7968 22.3901 74.2605 22.3901 65.8398V38.7163L49.9049 31.8369L77.4196 38.7163V65.8398C77.4196 74.2605 72.7602 82.7879 63.9453 90.5032C59.8905 94.0332 55.4406 97.0817 50.6844 99.5878L49.893 99.9998ZM25.938 41.4936V65.8398C25.938 81.9788 45.6515 93.6688 49.896 95.9955C54.1345 93.6658 73.8539 81.9551 73.8539 65.8398V41.4936L49.896 35.5034L25.938 41.4936Z" fill="#153E79"/>
</g>
</svg>
