<svg width="40" height="40" viewBox="0 0 40 40" fill="none" xmlns="http://www.w3.org/2000/svg">
<g id="Frame">
<path id="Vector" d="M19.9732 6.085C20.0162 5.9902 20.0856 5.90979 20.1731 5.85339C20.2606 5.79699 20.3625 5.767 20.4665 5.767C20.5706 5.767 20.6725 5.79699 20.76 5.85339C20.8475 5.90979 20.9169 5.9902 20.9599 6.085L24.8565 14.66C24.8952 14.7448 24.9551 14.8182 25.0304 14.8731C25.1058 14.928 25.194 14.9625 25.2865 14.9733L34.6765 16.0883C35.1499 16.1433 35.3265 16.7383 34.9599 17.0433L27.9432 22.86C27.8675 22.9231 27.8104 23.0056 27.7781 23.0987C27.7458 23.1918 27.7395 23.2919 27.7599 23.3883L29.7716 33.185C29.7931 33.2888 29.7837 33.3967 29.7446 33.4953C29.7054 33.5938 29.6382 33.6787 29.5512 33.7394C29.4643 33.8001 29.3614 33.8339 29.2554 33.8367C29.1494 33.8395 29.0449 33.8111 28.9549 33.755L20.7499 28.6667C20.6641 28.6134 20.5651 28.5851 20.464 28.5851C20.363 28.5851 20.264 28.6134 20.1782 28.6667L11.9765 33.755C11.8865 33.8111 11.782 33.8395 11.676 33.8367C11.57 33.8339 11.4672 33.8001 11.3802 33.7394C11.2932 33.6787 11.226 33.5938 11.1869 33.4953C11.1477 33.3967 11.1383 33.2888 11.1599 33.185L13.1715 23.3883C13.1914 23.292 13.1847 23.1921 13.1521 23.0993C13.1195 23.0066 13.0623 22.9244 12.9865 22.8617L5.96988 17.045C5.88766 16.9774 5.82718 16.8871 5.79599 16.7853C5.7648 16.6835 5.76429 16.5748 5.79452 16.4728C5.82474 16.3707 5.88437 16.2798 5.96595 16.2114C6.04753 16.1431 6.14744 16.1003 6.25321 16.0883L15.6432 14.9733C15.7358 14.9625 15.824 14.928 15.8993 14.8731C15.9747 14.8182 16.0346 14.7448 16.0732 14.66L19.9715 6.085H19.9732Z" fill="#4ecf91" stroke="#4ecf91" stroke-width="1.626" stroke-linejoin="round"/>
</g>
</svg>
