<svg width="40" height="41" viewBox="0 0 40 41" fill="none" xmlns="http://www.w3.org/2000/svg">
<g id="&#240;&#159;&#166;&#134; icon &#34;test tubes lab thin&#34;">
<path id="Vector" d="M4.89164 39.9929C4.8825 39.993 4.87171 39.993 4.86096 39.993C2.17638 39.993 0 37.8167 0 35.132C0 34.0799 0.334224 33.1059 0.902284 32.3103L0.892281 32.3251L8.67819 21.5215V6.94423H17.4403V21.5234L19.6708 24.6502L18.1856 25.7046L15.6224 22.1052V8.76208H10.496V22.1069L2.38111 33.3776C2.03286 33.8659 1.82434 34.4747 1.82434 35.1322C1.82434 36.8129 3.18679 38.1753 4.86745 38.1753C4.88425 38.1753 4.90106 38.1752 4.91778 38.175H4.91524H21.2759C22.0919 38.1685 22.8305 37.8433 23.3747 37.3179L23.3738 37.3188L24.6318 38.6295C23.7628 39.4677 22.5806 39.9861 21.2773 39.9929L4.89164 39.9929ZM20.0034 8.76208H6.11514V6.94423H20.0034V8.76208ZM35.6189 1.81785H21.7304V0H35.6189L35.6189 1.81785ZM24.2937 0H33.0558V18.2458C37.1696 20.0042 40 24.0162 40 28.6894C40 34.9442 34.9295 40.0147 28.6747 40.0147C22.42 40.0147 17.3495 34.9442 17.3495 28.6894C17.3495 24.0162 20.1799 20.0042 24.2199 18.2739L24.2938 18.2458L24.2937 0ZM31.2379 1.81785H26.1115V19.5129L25.5062 19.7274C21.782 21.0721 19.1681 24.5763 19.1681 28.6909C19.1681 33.9417 23.4248 38.1983 28.6755 38.1983C33.9263 38.1983 38.1829 33.9417 38.1829 28.6909C38.1829 24.5763 35.5691 21.0721 31.9112 19.7483L31.845 19.7274L31.2397 19.5128L31.2379 1.81785ZM13.0594 27.8496H6.11498V26.0317H13.0592L13.0594 27.8496ZM32.1468 26.1044H20.0034V24.2866H32.1468L32.1468 26.1044Z" fill="#153E79"/>
</g>
</svg>
