<svg width="25" height="25" viewBox="0 0 25 25" fill="none" xmlns="http://www.w3.org/2000/svg">
<g id="&#240;&#159;&#166;&#134; icon &#34;verified&#34;">
<path id="Vector" d="M23.9582 12.5L21.4165 9.59375L21.7707 5.75L18.0103 4.89583L16.0415 1.5625L12.4998 3.08333L8.95817 1.5625L6.98942 4.88542L3.229 5.72917L3.58317 9.58333L1.0415 12.5L3.58317 15.4062L3.229 19.2604L6.98942 20.1146L8.95817 23.4375L12.4998 21.9062L16.0415 23.4271L18.0103 20.1042L21.7707 19.25L21.4165 15.4062L23.9582 12.5ZM9.77067 16.6771L7.2915 14.1771C6.88525 13.7708 6.88525 13.1146 7.2915 12.7083L7.36442 12.6354C7.77067 12.2292 8.43734 12.2292 8.84359 12.6354L10.5207 14.3229L15.8853 8.94792C16.2915 8.54167 16.9582 8.54167 17.3644 8.94792L17.4373 9.02083C17.8436 9.42708 17.8436 10.0833 17.4373 10.4896L11.2707 16.6771C10.8436 17.0833 10.1873 17.0833 9.77067 16.6771Z" fill="#0094FF"/>
</g>
</svg>
